<?xml version="1.0" encoding="utf-8"?>
<!-- Generator: Adobe Illustrator 16.0.2, SVG Export Plug-In . SVG Version: 6.00 Build 0)  -->
<!DOCTYPE svg PUBLIC "-//W3C//DTD SVG 1.1//EN" "http://www.w3.org/Graphics/SVG/1.1/DTD/svg11.dtd">
<svg version="1.1" id="Layer_1" xmlns="http://www.w3.org/2000/svg" xmlns:xlink="http://www.w3.org/1999/xlink" x="0px" y="0px"
	 width="612px" height="385.6px" viewBox="0 90 612 385.6" enable-background="new 0 90 612 385.6" xml:space="preserve">
<polygon fill="#008434" points="615.5,475.6 0,193.7 0,90 615.5,90 "/>
<path fill="#FFFFFF" d="M214.4,136.9c0.8-0.7,2-0.7,3-0.2c27.8,12.7,55.7,25.5,83.5,38.2c0.8,0.4,1.6,0.7,2,1.6
	c0.2,1.1-0.8,1.8-1.7,2.1c-20.6,9.4-41.1,18.9-61.7,28.4c0-2,0.1-3.9-0.1-5.9c0-0.8-0.5-1.5-1-2.2c-0.6,0-1.3,0-1.8,0.4
	c-5,2.3-9.9,4.6-14.9,6.9c-0.1-2.9,0-5.8,0-8.7c5.1-2.3,10.2-4.7,15.3-7.1c1.4-0.6,2.5-1.8,2.5-3.3c0.1-1.7,0.3-3.5-0.4-5.1
	c-0.4-0.9-1.6-0.8-2.4-0.5c-5,2.3-10,4.7-15,6.9c0-2.9,0-5.7,0-8.6c5-2.3,9.9-4.6,14.9-6.9c1.2-0.5,2.4-1.3,2.7-2.6
	c0.3-1.4,0.3-2.9,0.2-4.4c-0.1-0.9-0.3-1.8-1.1-2.3c-1-0.3-1.9,0.3-2.8,0.7c-7.3,3.4-14.6,6.8-22,10.2c0-11.6,0-23.1,0-34.7
	c0-1.1,0.1-2.2,0.8-3l0,0V136.9z M503.5,171.4c3.1,0,6.2,0,9.2,0c0,15.5,0,31,0,46.4c-3.101,0-6.2,0.1-9.3,0
	C503.6,202.4,503.5,186.8,503.5,171.4L503.5,171.4z M432.9,173.4c2-0.5,4.3,0.1,5.5,1.8c1.6,2,1.6,5-0.101,6.9
	c-1.5,1.9-4.399,2.4-6.6,1.3c-1.9-0.9-3-3-2.9-5c0.101-2.2,1.8-4.3,4-4.9h0.101V173.4z M522.7,173.4c1.899-0.5,4.2,0.2,5.399,1.7
	c1.9,2.1,1.601,5.8-0.6,7.6c-1.6,1.4-4.2,1.7-6.1,0.6c-1.801-0.9-2.9-3-2.7-5c0-2.3,1.8-4.5,4-5l0,0V173.4z M320.4,174.4
	c9.8,0,19.699,0,29.5,0c0,2.9,0,5.9,0,8.8c-6.601,0-13.301,0-19.9,0c0,2.7,0,5.4,0,8.1c6.3,0,12.5,0,18.8,0c0,2.9,0,5.9,0,8.9
	c-6.3,0-12.5,0-18.8,0c0,2.9,0,5.8,0,8.8c7,0,14,0,21,0c0,3,0,5.9,0,8.9c-6.2,0.1-12.3,0-18.5,0c-4.1,0-8.1,0.1-12.2,0
	c0.2-14.4,0.101-29,0.101-43.4l0,0V174.4z M207.3,177.4c2.1-0.9,4.1-2,6.2-2.8c0,13.1,0,26.2,0,39.4c0,1.1,0.1,2.6,1.2,3.2
	c1,0.5,2.1,0.2,3.1-0.2c5.5-2.6,11.1-5.1,16.7-7.7c1.6-0.7,3.2-1.6,4.9-2.2c0.2,9.9,0,19.8,0.1,29.7c0,2,0.1,4-0.1,6
	c0,1-0.7,2.1-1.8,2.2c-1.3,0.2-2.5-0.5-3.7-1c-27.3-12.5-54.6-25-82-37.5c-0.8-0.4-1.8-0.9-1.8-1.9c-0.1-1,1-1.4,1.7-1.8
	c18.4-8.5,36.9-17,55.4-25.5h0.1V177.4z M448.5,179.1c3.1,0,6.1,0,9.2,0c0.1,2.9,0,5.9,0,8.8c2.7,0,5.399,0,8.1,0c0,2.4,0,4.9,0,7.4
	c-2.7,0-5.399,0-8.1,0c0,3.7,0,7.4,0,11.2c0,1.5,0.5,3.2,2,3.8c2,0.7,4.3,0.5,6.2-0.3c0,2.5,0,5,0,7.6c-2.601,0.9-5.4,1-8.101,0.9
	c-2.3-0.2-4.8-0.8-6.6-2.4c-1.8-1.4-2.7-3.8-2.7-6.1c0-4.9,0-9.8,0-14.7c-2,0-3.9,0-5.9,0c0-2.5,0-4.9,0-7.4c2,0,3.9,0,5.9,0
	C448.6,185,448.5,182,448.5,179.1L448.5,179.1z M394.4,187.9c3.1,0,6.1,0,9.199,0c0,4.7,0,9.3,0,14c0.101,1.7,0,3.4,0.5,5.1
	c0.301,1.1,1,2.2,2.101,2.8c1.5,0.7,3.399,0.7,5,0c1.2-0.5,2-1.7,2.399-2.9c0.601-1.9,0.5-4,0.5-5.9c0-4.3,0-8.7,0-13
	c3.101,0,6.2,0,9.2,0c0,9.9,0,19.8,0,29.8c-3,0.1-5.899,0.1-8.899,0c0-1.3,0-2.7,0-4c-1.601,2.8-4.601,4.5-7.801,4.7
	c-2.6,0.2-5.3-0.1-7.5-1.5c-1.699-1-2.899-2.7-3.5-4.5c-1-2.9-1-6-1.1-9c0-5.1-0.2-10.3,0-15.5h-0.1V187.9z M429.7,187.9
	c3.1,0,6.2,0,9.3,0c0,9.9,0,19.8,0,29.9c-3.1,0.1-6.2,0.1-9.3,0c0-9.9,0.1-20,0.1-29.8h-0.1V187.9z M519.4,187.9
	c3.1,0,6.1,0,9.199,0c0,9.9,0,19.9,0,29.9c-3.1,0.1-6.199,0-9.199,0.1c0-10,0-19.9,0-29.9l0,0V187.9z M387.1,216.3
	c0-9.4,0-18.9,0-28.3c-2.8,0-5.6,0-8.5,0c0,1.3,0,2.5,0,3.8c-2.3-2.7-5.6-4.5-9.1-4.5c-4.1-0.1-8.4,1.5-11.1,4.7
	c-2.7,3.1-3.9,7.3-3.7,11.4c0.1,5,2.3,10.3,6.6,13.2c3,2.1,7,2.4,10.4,1.7c2.399-0.4,4.6-1.6,6.1-3.6c0,5.8,0,11.4,0,17.1
	c3.101,0,6.101,0,9.2,0c0.1-5.1,0-10.2,0.1-15.4l0,0V216.3z M375.1,209.4c-3,1.6-7.399,1.2-9.6-1.6c-1.7-2.1-1.9-5.1-1.3-7.6
	c0.6-2.5,2.899-4.5,5.5-4.8c2-0.3,4.2,0,5.899,1.2c1.801,1.3,2.801,3.5,2.801,5.8C378.6,205.1,377.5,208.1,375.1,209.4L375.1,209.4
	L375.1,209.4z M497.6,206.5c0-4.2,0.301-8.5-1.199-12.5c-0.9-2.4-2.7-4.5-5.101-5.5c-2.7-1.2-5.8-1.4-8.7-1.2
	c-4.3,0.3-8.699,1.8-11.8,4.8c1.7,1.6,3.2,3.4,5,5c1.101-0.9,2.101-2,3.4-2.6c2.399-1.2,5.5-1.4,7.7,0.2
	c1.399,0.9,2.1,2.6,2.199,4.2c-3.6,0-7.3,0-10.899,0.8c-2.3,0.5-4.601,1.4-6.4,2.9c-3,2.5-3.6,7-2.2,10.5
	c1.101,2.7,3.801,4.5,6.601,5.2c2.899,0.6,6.1,0.5,8.8-0.7c1.6-0.7,2.9-1.9,4-3.3c0,1.2,0,2.4,0,3.6c2.8,0.1,5.6,0.1,8.6,0
	c-0.1-3.8-0.1-7.6-0.1-11.4H497.6z M488.5,209.1c-0.9,1.7-2.9,2.7-4.8,3c-1.7,0.3-3.601,0.2-4.9-1c-1.1-0.9-1.2-2.7-0.5-3.8
	c0.7-1,2-1.6,3.2-1.9c2.5-0.7,5.1-0.6,7.6-0.6C489.1,206.2,489.2,207.8,488.5,209.1L488.5,209.1z M562.4,206.7
	c-0.101-4.4,0.3-8.9-1.301-13c-0.899-2.3-2.699-4.3-5.1-5.3c-2.5-1.1-5.3-1.3-8-1.2c-2.8,0.1-5.7,0.8-8.2,1.9
	c-1.5,0.8-3,1.6-4.2,2.9c1.7,1.6,3.2,3.4,4.9,5c1.3-1.4,2.9-2.6,4.8-3.1c2-0.6,4.3-0.6,6.101,0.6c1.5,0.9,2.399,2.6,2.399,4.3
	c-3.7,0-7.399,0-11,0.8c-2.399,0.5-4.8,1.4-6.6,3.2c-2.601,2.4-3.2,6.4-2,9.7c0.899,2.7,3.3,4.5,5.899,5.4c3.2,1,6.7,0.9,9.801-0.5
	c1.6-0.7,2.899-2,4-3.3c0,1.3,0,2.6,0,3.8c2.8,0,5.6-0.1,8.399,0c0.2-3.8,0.101-7.5,0.2-11.2H562.4L562.4,206.7z M552.9,209.6
	c-1.5,2-4.101,2.7-6.4,2.6c-1.3-0.1-2.7-0.6-3.5-1.7c-0.5-0.7-0.5-1.7-0.3-2.5c0.399-1.2,1.5-2,2.6-2.4c2.7-1,5.7-0.9,8.5-0.8
	c0,1.7,0.101,3.5-1,4.9h0.101V209.6z"/>
</svg>
