<?xml version="1.0" encoding="utf-8"?>
<!-- Generator: Adobe Illustrator 16.0.2, SVG Export Plug-In . SVG Version: 6.00 Build 0)  -->
<!DOCTYPE svg PUBLIC "-//W3C//DTD SVG 1.1//EN" "http://www.w3.org/Graphics/SVG/1.1/DTD/svg11.dtd">
<svg version="1.1" id="Layer_1" xmlns="http://www.w3.org/2000/svg" xmlns:xlink="http://www.w3.org/1999/xlink" x="0px" y="0px"
	 width="486.219px" height="60.789px" viewBox="0 0 486.219 60.789" enable-background="new 0 0 486.219 60.789"
	 xml:space="preserve">
<g>
	<g>
		<path fill="#FFFFFF" d="M121.757,4.995c0.545,0.424,0.908,0.959,1.09,1.604c0.182,0.646,0.272,1.453,0.272,2.422v14.177h6.963
			V6.66c0-1.009,0.171-1.635,0.515-1.877c0.342-0.242,1.12-0.363,2.331-0.363h8.658c2.059,0,3.733,0.172,5.025,0.515
			c1.292,0.344,2.34,0.929,3.148,1.756c0.807,0.828,1.432,1.928,1.877,3.3c0.444,1.373,0.848,3.108,1.211,5.207l2.422-0.061
			c0.04-2.543,0.121-4.944,0.242-7.205c0.121-2.26,0.303-4.42,0.545-6.479c-7.791,0-14.208,0.021-19.254,0.061
			c-5.046,0.041-8.355,0.061-9.93,0.061c-0.848,0-1.766-0.01-2.755-0.03c-0.99-0.02-2.008-0.03-3.058-0.03
			c-1.009,0-2.008-0.01-2.997-0.03c-0.99-0.02-1.868-0.03-2.634-0.03l-0.182,2.18c1.735,0.081,3.118,0.223,4.147,0.424
			C120.425,4.259,121.212,4.571,121.757,4.995z"/>
		<path fill="#FFFFFF" d="M167.44,4.48c0.524,0.242,0.989,0.545,1.393,0.908c0.403,0.363,0.807,0.808,1.211,1.332
			c0.403,0.484,0.727,0.949,0.969,1.393c0.242,0.444,0.433,0.999,0.575,1.665c0.141,0.666,0.232,1.524,0.272,2.573
			c0.04,1.05,0.061,2.422,0.061,4.117v6.73h3.633v-9.636l0.242-0.121l8.221,9.757h9.565L175.25,1.574c-1.09,0-2.261-0.01-3.512-0.03
			c-1.251-0.02-2.462-0.03-3.633-0.03c-1.171,0-2.231-0.01-3.179-0.03c-0.949-0.02-1.665-0.03-2.149-0.03l-0.121,2.18
			c1.129,0.081,2.079,0.182,2.846,0.303C166.269,4.057,166.915,4.238,167.44,4.48z"/>
		<path fill="#FFFFFF" d="M7.938,23.199c0.288-2.25,0.755-4.287,1.415-6.094c1.17-3.209,2.734-5.822,4.692-7.841
			c1.958-2.018,4.217-3.481,6.781-4.39c2.563-0.908,5.237-1.362,8.022-1.362c2.583,0,5.177,0.475,7.78,1.423
			c2.604,0.949,4.955,2.543,7.054,4.783c2.098,2.24,3.814,5.197,5.146,8.87c0.511,1.409,0.921,2.947,1.236,4.611h8.512
			c-0.368-1.948-0.899-3.8-1.605-5.549c-1.474-3.652-3.522-6.771-6.146-9.354c-2.625-2.583-5.782-4.571-9.476-5.964
			s-7.741-2.089-12.14-2.089c-4.48,0-8.558,0.768-12.23,2.301c-3.673,1.534-6.822,3.674-9.445,6.418
			c-2.625,2.745-4.662,6.005-6.115,9.778c-0.553,1.435-0.999,2.922-1.341,4.459H7.938z"/>
		<path fill="#FFFFFF" d="M73.138,4.995c0.504,0.424,0.837,0.959,0.999,1.604c0.161,0.646,0.242,1.453,0.242,2.422v14.177h6.963
			V8.658c0-0.848,0.061-1.554,0.182-2.119c0.121-0.564,0.394-1.019,0.817-1.362c0.424-0.343,1.039-0.595,1.847-0.757
			c0.807-0.161,1.917-0.242,3.33-0.242c4.52,0,8.042,1.11,10.565,3.33c2.522,2.221,3.784,5.651,3.784,10.293
			c0,2.051-0.238,3.843-0.692,5.398h8.077c0.562-1.72,0.85-3.618,0.85-5.701c0-3.067-0.585-5.661-1.756-7.78
			c-1.171-2.119-2.735-3.824-4.692-5.116c-1.958-1.291-4.238-2.22-6.842-2.785c-2.604-0.564-5.338-0.848-8.204-0.848
			c-1.816,0-3.654,0.102-5.51,0.303c-1.857,0.202-3.512,0.303-4.965,0.303c-0.969,0-1.978-0.01-3.027-0.03
			c-1.05-0.02-2.08-0.03-3.088-0.03c-1.009,0-1.948-0.01-2.815-0.03c-0.869-0.02-1.625-0.03-2.271-0.03l-0.121,2.18
			c1.695,0.081,3.047,0.223,4.057,0.424C71.876,4.259,72.633,4.571,73.138,4.995z"/>
		<path fill="#FFFFFF" d="M50.389,38.582c-0.292,1.956-0.732,3.738-1.318,5.345c-1.171,3.209-2.735,5.823-4.692,7.841
			c-1.958,2.019-4.218,3.481-6.781,4.39c-2.564,0.908-5.237,1.362-8.022,1.362c-2.583,0-5.177-0.474-7.78-1.423
			c-2.604-0.948-4.956-2.543-7.054-4.783c-2.099-2.24-3.814-5.196-5.146-8.87c-0.433-1.192-0.787-2.486-1.079-3.861H0
			c0.358,1.674,0.836,3.277,1.451,4.8c1.473,3.653,3.532,6.771,6.176,9.354c2.643,2.584,5.802,4.571,9.476,5.964
			c3.672,1.393,7.709,2.089,12.109,2.089c4.48,0,8.557-0.768,12.23-2.301c3.672-1.533,6.821-3.673,9.445-6.418
			c2.624-2.744,4.662-6.004,6.115-9.778c0.462-1.199,0.842-2.438,1.157-3.71H50.389z"/>
		<path fill="#FFFFFF" d="M390.661,23.199c0.263-1.526,0.608-3,1.075-4.399c1.068-3.209,2.643-5.953,4.723-8.234
			c2.078-2.28,4.65-4.057,7.719-5.328s6.619-1.907,10.656-1.907c2.059,0,3.955,0.272,5.691,0.817s3.26,1.393,4.572,2.543
			c1.311,1.15,2.361,2.604,3.148,4.359s1.26,3.825,1.422,6.206l2.543-0.242c0-2.583,0.031-5.035,0.092-7.356
			c0.061-2.32,0.211-4.772,0.453-7.356c-2.422-0.646-5.035-1.15-7.84-1.514c-2.807-0.363-5.439-0.545-7.902-0.545
			c-4.764,0-9.283,0.636-13.563,1.907s-8.043,3.199-11.291,5.782c-3.25,2.584-5.824,5.803-7.721,9.657
			c-0.854,1.735-1.504,3.61-1.974,5.61H390.661z"/>
		<path fill="#FFFFFF" d="M448.771,4.995c0.545,0.424,0.908,0.959,1.09,1.604c0.182,0.646,0.271,1.453,0.271,2.422v14.177h6.963
			V6.66c0-1.009,0.172-1.635,0.516-1.877c0.342-0.242,1.119-0.363,2.33-0.363h8.658c2.059,0,3.734,0.172,5.025,0.515
			c1.291,0.344,2.342,0.929,3.148,1.756c0.807,0.828,1.434,1.928,1.877,3.3c0.443,1.373,0.848,3.108,1.211,5.207l2.422-0.061
			c0.041-2.543,0.121-4.944,0.242-7.205c0.121-2.26,0.303-4.42,0.545-6.479c-7.791,0-14.209,0.021-19.254,0.061
			c-5.045,0.041-8.355,0.061-9.93,0.061c-0.848,0-1.766-0.01-2.754-0.03c-0.99-0.02-2.01-0.03-3.059-0.03
			c-1.01,0-2.008-0.01-2.996-0.03c-0.99-0.02-1.867-0.03-2.635-0.03l-0.182,2.18c1.736,0.081,3.119,0.223,4.148,0.424
			C447.439,4.259,448.227,4.571,448.771,4.995z"/>
		<path fill="#FFFFFF" d="M342.509,23.199l4.997-12.603h0.182l4.169,12.603h7.557l-4.642-13.451
			c-0.443-1.332-0.918-2.805-1.422-4.42c-0.506-1.614-0.98-3.391-1.424-5.328l-3.814,0.484c-0.404,1.05-0.877,2.028-1.422,2.937
			s-1.061,1.968-1.545,3.179l-6.792,16.599H342.509z"/>
		<path fill="#FFFFFF" d="M234.169,23.199h11.14c-0.884-0.531-1.698-1.116-2.428-1.765c-1.09-0.969-1.948-2.108-2.573-3.421
			c-0.626-1.312-0.938-2.937-0.938-4.874c0-1.453,0.251-2.765,0.757-3.936c0.504-1.17,1.201-2.18,2.089-3.027
			c0.887-0.848,1.937-1.493,3.148-1.938c1.211-0.443,2.543-0.666,3.996-0.666c3.794,0,6.813,1.06,9.053,3.179
			s3.541,5.318,3.904,9.597l2.543-0.242c0-1.291,0.01-2.492,0.031-3.603c0.02-1.109,0.039-2.199,0.061-3.27
			c0.02-1.069,0.069-2.159,0.15-3.27c0.081-1.109,0.182-2.311,0.303-3.603c-2.462-0.646-4.773-1.16-6.932-1.544
			c-2.16-0.383-4.512-0.575-7.055-0.575c-2.624,0-5.096,0.344-7.416,1.029c-2.322,0.687-4.36,1.695-6.116,3.027
			s-3.148,2.978-4.178,4.935c-1.029,1.958-1.544,4.208-1.544,6.751c0,2.382,0.463,4.44,1.393,6.176
			C233.748,22.517,233.957,22.859,234.169,23.199z"/>
		<path fill="#FFFFFF" d="M280.572,4.995c0.504,0.424,0.837,0.959,0.998,1.604c0.161,0.646,0.242,1.453,0.242,2.422v14.177h6.963
			V8.658c0-0.848,0.061-1.554,0.182-2.119c0.121-0.564,0.395-1.019,0.818-1.362c0.424-0.343,1.038-0.595,1.846-0.757
			c0.808-0.161,1.917-0.242,3.33-0.242c4.521,0,8.043,1.11,10.566,3.33c2.521,2.221,3.783,5.651,3.783,10.293
			c0,2.051-0.237,3.843-0.691,5.398h8.076c0.563-1.72,0.85-3.618,0.85-5.701c0-3.067-0.586-5.661-1.756-7.78
			s-2.734-3.824-4.691-5.116c-1.959-1.291-4.238-2.22-6.842-2.785c-2.604-0.564-5.339-0.848-8.205-0.848
			c-1.816,0-3.653,0.102-5.51,0.303c-1.856,0.202-3.512,0.303-4.965,0.303c-0.969,0-1.978-0.01-3.027-0.03
			c-1.05-0.02-2.079-0.03-3.088-0.03s-1.947-0.01-2.814-0.03c-0.869-0.02-1.626-0.03-2.271-0.03l-0.121,2.18
			c1.695,0.081,3.048,0.223,4.057,0.424C279.31,4.259,280.066,4.571,280.572,4.995z"/>
		<path fill="#FFFFFF" d="M212.608,5.237c0.605,0.545,1.019,1.353,1.241,2.422c0.221,1.07,0.333,2.554,0.333,4.45v11.089h3.633
			v-8.91c0-2.422,0.121-4.318,0.363-5.691c0.242-1.372,0.656-2.401,1.241-3.088c0.584-0.686,1.382-1.15,2.392-1.393
			c1.008-0.242,2.301-0.443,3.875-0.605l-0.061-2.059c-0.566,0-1.221,0.011-1.968,0.03c-0.748,0.021-1.535,0.041-2.361,0.061
			c-0.828,0.021-1.665,0.041-2.513,0.061c-0.848,0.021-1.656,0.03-2.422,0.03c-1.938,0-3.794-0.02-5.57-0.061
			c-1.777-0.04-3.31-0.061-4.602-0.061l-0.121,2.18c1.655,0.121,3.006,0.272,4.057,0.454C211.175,4.329,212.002,4.692,212.608,5.237
			z"/>
		<path fill="#FFFFFF" d="M290.047,56.006c-0.605-0.443-0.969-0.999-1.09-1.665s-0.182-1.483-0.182-2.452V38.582h-6.963V49.77
			c0,1.534-0.09,2.775-0.271,3.724c-0.182,0.949-0.536,1.695-1.061,2.24s-1.262,0.949-2.209,1.211
			c-0.949,0.263-2.211,0.454-3.785,0.575l0.121,2.059c0.565,0,1.251-0.01,2.059-0.03c0.808-0.02,1.655-0.03,2.543-0.03
			c0.929,0,1.856-0.01,2.785-0.03c0.929-0.02,1.776-0.03,2.543-0.03c1.938,0,4.097,0.021,6.479,0.061
			c2.382,0.041,4.662,0.061,6.842,0.061l0.121-2.18c-2.22-0.04-3.945-0.171-5.176-0.394C291.57,56.783,290.652,56.45,290.047,56.006
			z"/>
		<path fill="#FFFFFF" d="M371.725,55.733c-0.646-0.545-1.211-1.321-1.695-2.331c-0.484-1.009-1.029-2.401-1.635-4.178
			l-3.673-10.643h-7.786l4.133,12.398c0.242,0.727,0.443,1.383,0.605,1.968c0.162,0.586,0.242,1.101,0.242,1.544
			c0,1.05-0.484,1.767-1.453,2.149c-0.969,0.384-2.584,0.656-4.844,0.817l0.182,2.059c1.695,0,3.41-0.02,5.146-0.061
			c1.736-0.04,3.451-0.061,5.146-0.061c2.059,0,4.107,0.021,6.146,0.061c2.037,0.041,3.904,0.061,5.6,0.061l0.182-2.18
			c-1.574-0.121-2.855-0.282-3.844-0.484C373.188,56.652,372.371,56.278,371.725,55.733z"/>
		<path fill="#FFFFFF" d="M330.734,54.371c0-0.605,0.404-2.059,1.211-4.359l4.468-11.43h-4.354l-3.686,9.008
			c-0.889,2.059-1.664,3.704-2.33,4.935c-0.666,1.231-1.373,2.2-2.119,2.906c-0.748,0.707-1.625,1.191-2.635,1.453
			c-1.01,0.263-2.301,0.454-3.875,0.575l0.121,2.059c1.494,0,3.037-0.02,4.633-0.061c1.594-0.04,3.137-0.061,4.631-0.061
			c1.816,0,3.652,0.021,5.51,0.061c1.857,0.041,3.531,0.061,5.025,0.061l0.182-2.18c-2.543-0.121-4.309-0.383-5.297-0.787
			C331.229,56.147,330.734,55.421,330.734,54.371z"/>
		<path fill="#FFFFFF" d="M481.285,50.436c-0.787,1.494-1.686,2.694-2.695,3.603s-2.25,1.555-3.723,1.938
			c-1.475,0.384-3.381,0.575-5.723,0.575h-4.42c-1.654,0-2.977-0.101-3.965-0.303c-0.99-0.201-1.756-0.555-2.301-1.06
			c-0.545-0.504-0.908-1.2-1.09-2.089c-0.182-0.888-0.273-2.018-0.273-3.391V38.582h-6.963V49.77c0,1.534-0.102,2.775-0.303,3.724
			c-0.201,0.949-0.605,1.695-1.211,2.24s-1.473,0.949-2.604,1.211c-1.131,0.263-2.623,0.454-4.48,0.575l0.182,2.059
			c0.686,0,1.523-0.01,2.514-0.03c0.988-0.02,2.008-0.03,3.057-0.03s2.068-0.01,3.059-0.03c0.988-0.02,1.846-0.03,2.572-0.03
			c2.463,0,6.186,0.021,11.172,0.061c4.984,0.041,11.492,0.061,19.525,0.061c0.041-0.727,0.141-1.654,0.303-2.785
			c0.162-1.13,0.363-2.341,0.605-3.633c0.242-1.291,0.504-2.604,0.787-3.936s0.586-2.583,0.908-3.754l-2.361-0.545
			C482.93,47.105,482.072,48.942,481.285,50.436z"/>
		<path fill="#FFFFFF" d="M82.614,56.006c-0.605-0.443-0.969-0.999-1.09-1.665s-0.182-1.483-0.182-2.452V38.582h-6.963V49.77
			c0,1.534-0.091,2.775-0.272,3.724c-0.182,0.949-0.536,1.695-1.06,2.24c-0.525,0.545-1.262,0.949-2.21,1.211
			c-0.949,0.263-2.21,0.454-3.784,0.575l0.121,2.059c0.565,0,1.25-0.01,2.059-0.03c0.807-0.02,1.655-0.03,2.543-0.03
			c0.928,0,1.856-0.01,2.785-0.03c0.928-0.02,1.776-0.03,2.543-0.03c1.938,0,4.096,0.021,6.479,0.061
			c2.381,0.041,4.662,0.061,6.842,0.061l0.121-2.18c-2.22-0.04-3.946-0.171-5.177-0.394C84.137,56.783,83.219,56.45,82.614,56.006z"
			/>
		<path fill="#FFFFFF" d="M429.094,48.831c-1.07,1.877-2.332,3.462-3.785,4.753c-1.533,1.373-3.299,2.361-5.297,2.967
			s-4.088,0.908-6.268,0.908c-3.996,0-7.467-0.736-10.414-2.21c-2.947-1.473-5.398-3.471-7.355-5.994
			c-1.959-2.522-3.422-5.489-4.391-8.9c-0.165-0.581-0.296-1.178-0.434-1.772h-8.734c0.381,1.649,0.89,3.231,1.539,4.739
			c1.574,3.653,3.764,6.771,6.57,9.354c2.805,2.584,6.135,4.582,9.99,5.994c3.854,1.412,8.063,2.119,12.623,2.119
			c3.148,0,6.287-0.263,9.416-0.787c3.127-0.524,6.285-1.251,9.475-2.18c0.283-2.664,0.625-5.166,1.029-7.508
			c0.404-2.341,0.949-4.844,1.635-7.508l-2.422-0.605C431.223,44.744,430.162,46.954,429.094,48.831z"/>
		<path fill="#FFFFFF" d="M154.271,50.436c-0.787,1.494-1.686,2.694-2.694,3.603c-1.009,0.908-2.25,1.555-3.724,1.938
			c-1.474,0.384-3.381,0.575-5.722,0.575h-4.42c-1.656,0-2.977-0.101-3.966-0.303c-0.99-0.201-1.756-0.555-2.301-1.06
			c-0.545-0.504-0.908-1.2-1.09-2.089c-0.182-0.888-0.272-2.018-0.272-3.391V38.582h-6.963V49.77c0,1.534-0.101,2.775-0.303,3.724
			c-0.203,0.949-0.605,1.695-1.211,2.24s-1.474,0.949-2.604,1.211c-1.13,0.263-2.625,0.454-4.48,0.575l0.182,2.059
			c0.686,0,1.523-0.01,2.513-0.03c0.989-0.02,2.007-0.03,3.058-0.03c1.049,0,2.068-0.01,3.058-0.03
			c0.989-0.02,1.847-0.03,2.573-0.03c2.461,0,6.185,0.021,11.171,0.061c4.985,0.041,11.494,0.061,19.526,0.061
			c0.04-0.727,0.141-1.654,0.303-2.785c0.161-1.13,0.363-2.341,0.605-3.633c0.242-1.291,0.504-2.604,0.787-3.936
			c0.282-1.332,0.584-2.583,0.908-3.754l-2.361-0.545C155.915,47.105,155.058,48.942,154.271,50.436z"/>
		<path fill="#FFFFFF" d="M177.127,55.854c-0.605-0.545-1.02-1.352-1.241-2.422c-0.222-1.069-0.333-2.553-0.333-4.45v-10.4h-3.633
			v8.221c0,2.422-0.121,4.319-0.363,5.691c-0.242,1.373-0.676,2.402-1.302,3.088c-0.626,0.687-1.463,1.141-2.513,1.362
			c-1.05,0.223-2.382,0.414-3.996,0.575l0.182,2.059c1.413,0,2.957-0.02,4.632-0.061c1.674-0.04,3.279-0.061,4.813-0.061
			c1.938,0,3.784,0.021,5.54,0.061c1.756,0.041,3.279,0.061,4.571,0.061l0.121-2.18c-1.656-0.121-2.997-0.272-4.026-0.454
			S177.733,56.399,177.127,55.854z"/>
		<path fill="#FFFFFF" d="M214.182,38.582v8.584L214,47.287l-7.379-8.705h-9.644l11.211,13.307c1.17,1.413,2.28,2.815,3.33,4.208
			c1.049,1.393,2.098,2.836,3.148,4.329l3.148-0.605V38.582H214.182z"/>
		<path fill="#FFFFFF" d="M257.205,38.582c0.835,0.854,1.53,1.817,2.084,2.893c0.727,1.413,1.09,3.108,1.09,5.086
			c0,1.574-0.282,3.018-0.848,4.329c-0.565,1.313-1.353,2.452-2.361,3.421s-2.18,1.716-3.512,2.24
			c-1.332,0.525-2.785,0.787-4.359,0.787c-2.382,0-4.42-0.373-6.115-1.12c-1.695-0.746-3.179-1.775-4.45-3.088
			c-1.271-1.312-2.361-2.855-3.27-4.632c-0.908-1.775-1.766-3.713-2.573-5.813l-2.543,0.605c0.686,2.664,1.231,5.167,1.635,7.508
			c0.403,2.342,0.747,4.844,1.029,7.508c2.664,0.768,5.186,1.372,7.568,1.816c2.381,0.443,4.682,0.666,6.902,0.666
			c2.543,0,5.025-0.384,7.447-1.15s4.562-1.887,6.418-3.36c1.856-1.473,3.351-3.27,4.48-5.389s1.695-4.551,1.695-7.296
			c0-1.854-0.275-3.523-0.825-5.012H257.205z"/>
	</g>
	
		<text transform="matrix(1.0543 0 0 1 56.9741 36.5352)" fill="#0054D1" font-family="'DaunPenh'" font-size="24" letter-spacing="4.742">LARGO AL CONFRONTO.</text>
</g>
</svg>
